<?xml version="1.0" encoding="utf-8"?>
<!-- Generator: Adobe Illustrator 21.0.0, SVG Export Plug-In . SVG Version: 6.00 Build 0)  -->
<svg version="1.1" id="Layer_1" xmlns="http://www.w3.org/2000/svg" xmlns:xlink="http://www.w3.org/1999/xlink" x="0px" y="0px"
	 viewBox="0 0 210 52" style="enable-background:new 0 0 210 52;" xml:space="preserve">
<style type="text/css">
	.st0{fill:#008A4D;}
	.st1{fill:#212053;}
</style>
<polygon class="st0" points="0.1,3.4 159.9,3.4 174.4,13.6 160.4,22.8 0.1,22.8 "/>
<polygon class="st1" points="0,30.3 159.8,30.3 174.3,40.5 160.3,49.7 0,49.7 "/>
<path class="st0" d="M197.5,0.1c-6.9,0-12.5,5.6-12.5,12.5s5.6,12.5,12.5,12.5S210,19.5,210,12.6S204.4,0.1,197.5,0.1z M197.5,20
	c-4.1,0-7.4-3.3-7.4-7.4c0-4.1,3.3-7.4,7.4-7.4c4.1,0,7.4,3.3,7.4,7.4C204.8,16.7,201.6,20,197.5,20z"/>
<path class="st1" d="M197.5,27c-6.9,0-12.5,5.6-12.5,12.5S190.6,52,197.5,52S210,46.4,210,39.5S204.4,27,197.5,27z M197.5,46.8
	c-4.1,0-7.4-3.3-7.4-7.4c0-4.1,3.3-7.4,7.4-7.4c4.1,0,7.4,3.3,7.4,7.4C204.8,43.6,201.6,46.8,197.5,46.8z"/>
</svg>
