<?xml version="1.0" encoding="utf-8"?>
<!-- Generator: Adobe Illustrator 21.0.0, SVG Export Plug-In . SVG Version: 6.00 Build 0)  -->
<svg version="1.1" xmlns="http://www.w3.org/2000/svg" xmlns:xlink="http://www.w3.org/1999/xlink" x="0px" y="0px"
	 viewBox="0 0 300 300" style="enable-background:new 0 0 300 300;" xml:space="preserve">
<style type="text/css">
	.st0{display:none;}
	.st1{display:inline;fill:none;stroke:#3F6068;stroke-width:15;stroke-miterlimit:10;}
	.st2{display:inline;fill:#3F6068;stroke:#3F6068;stroke-width:5;stroke-miterlimit:10;}
	.st3{fill:#215BAA;}
	.st4{fill:none;stroke:#215BAA;stroke-width:15;stroke-miterlimit:10;}
</style>
<g id="Layer_2" class="st0">
	<circle class="st1" cx="149.6" cy="149.7" r="139.5"/>
	<path class="st2" d="M108.6,217.6c4.2,4.2,11.5,4.2,15.8,0L245.7,97.4c4.3-4.3,4.3-11.3,0-15.6c-4.3-4.3-11.4-4.3-15.7,0
		L116.5,194.2L69.3,148c-4.3-4.3-11.4-4.3-15.7,0c-4.4,4.3-4.4,11.3,0,15.6L108.6,217.6z"/>
</g>
<g id="Layer_1">
	<g>
		<g>
			<path class="st3" d="M133.7,164.6c-0.3-0.5-0.5-1-0.7-1.6c-0.4-0.1-0.7-0.2-1.1-0.4c-0.5,0.4-1,0.7-1.5,0.9
				c-1.4,0.6-2.7,0.8-3.9,0.7c-1.3-0.1-2.7-0.5-3.9-1.1c-1.2-0.5-2.3-1.4-3.2-2.6c-0.3-0.4-0.5-0.8-0.8-1.2L88,234.4
				c-0.6,1.5,0.1,2.7,1.2,1.9l15.4-12.3c0.7-0.5,1.3-0.3,1.4,0.6l2.4,19.6c0.2,1.3,1.5,1,2.1-0.5l30.4-74.7c-0.2,0-0.5,0-0.7-0.1
				C137.6,168.5,135.1,166.9,133.7,164.6z"/>
			<path class="st3" d="M213.3,234.4l-31.9-78.5c0,0.4-0.1,0.8-0.2,1.1c-0.3,1.2-0.9,2.4-1.7,3.4c-0.9,1.2-2,2.1-3.2,2.6
				c-1.2,0.6-2.5,0.9-3.9,1c-1.2,0.1-2.5-0.1-3.8-0.7c-0.5-0.2-1-0.5-1.6-0.9c-0.4,0.1-0.7,0.2-1.1,0.4c-0.2,0.6-0.4,1.1-0.8,1.6
				c-1.2,1.9-3,3.3-5,3.9l30.6,75.1c0.6,1.5,2,1.9,2.1,0.5l2.4-19.6c0.1-0.8,0.7-1.1,1.4-0.6l15.4,12.3
				C213.2,237.1,214,235.9,213.3,234.4z"/>
			<path class="st3" d="M204.1,113.6L204.1,113.6c-0.3-0.4-0.8-0.8-1.4-1.1l-0.6-0.4l0-1.2c0-0.2,0-0.5,0-0.7c0-0.2,0-0.5,0-0.7
				l0-1.2l0.6-0.4c0.6-0.4,1-0.7,1.4-1.1c0.6-0.7,1.1-1.6,1.4-2.5c0.2-0.8,0.3-1.8,0.1-3c-0.2-2-1.4-3.7-3.1-4.8
				c-0.4-0.3-1-0.5-1.6-0.7l-0.7-0.2l-0.2-0.6c-0.2-0.7-0.5-1.5-0.7-2.2l-0.2-0.6l0.4-0.5c0.4-0.5,0.7-1,0.9-1.5
				c0.4-1,0.6-1.9,0.5-2.7c-0.1-1-0.4-2.1-0.8-3c-0.4-0.9-1-1.7-1.9-2.3c-0.8-0.6-1.7-1-2.5-1.3c-0.5-0.1-1.1-0.2-1.8-0.1l-0.7,0.1
				l-0.4-0.6c-0.4-0.6-0.9-1.3-1.4-1.9l-0.4-0.5l0.3-0.6c0.3-0.6,0.4-1.2,0.5-1.7c0.2-1.8-0.5-3.7-2-5.4c-1.7-1.5-3.6-2.2-5.4-2
				c-0.5,0.1-1.1,0.2-1.7,0.5l-0.6,0.3l-0.5-0.4c-0.6-0.5-1.3-0.9-1.9-1.4l-0.6-0.4l0.1-0.7c0.1-0.7,0-1.3-0.1-1.8
				c-0.2-0.9-0.7-1.7-1.3-2.5c-0.7-0.9-1.5-1.5-2.3-1.9c-1-0.5-2.1-0.8-3.1-0.8c-0.8-0.1-1.7,0.1-2.8,0.5c-0.5,0.2-0.9,0.5-1.5,0.9
				l-0.5,0.4l-0.6-0.2c-0.7-0.3-1.5-0.5-2.2-0.7l-0.6-0.2l-0.2-0.7c-0.2-0.7-0.4-1.2-0.7-1.6c-1.1-1.7-2.9-2.9-4.8-3.1
				c-1.2-0.2-2.3-0.1-3.1,0.1c-0.9,0.3-1.8,0.8-2.5,1.4c-0.4,0.3-0.8,0.8-1.1,1.4l-0.4,0.6l-1.1,0c-0.5,0-0.9,0-1.4,0l-1.1,0
				l-0.4-0.6c-0.4-0.6-0.7-1-1.1-1.4c-0.7-0.6-1.6-1.1-2.5-1.4c-0.8-0.2-1.8-0.3-3-0.1c-2,0.2-3.7,1.4-4.8,3.1
				c-0.3,0.4-0.5,1-0.7,1.6l-0.2,0.7l-0.6,0.2c-0.7,0.2-1.5,0.5-2.2,0.7l-0.6,0.2l-0.5-0.4c-0.5-0.4-1-0.7-1.5-0.9
				c-1-0.4-1.9-0.6-2.7-0.5c-1,0.1-2.1,0.4-3,0.8c-0.9,0.4-1.7,1-2.3,1.9c-0.6,0.8-1,1.7-1.3,2.5c-0.1,0.5-0.1,1.1-0.1,1.8l0.1,0.7
				l-0.6,0.4c-0.6,0.4-1.3,0.9-1.9,1.4l-0.5,0.4l-0.6-0.3c-0.7-0.3-1.2-0.4-1.7-0.5c-1.8-0.2-3.7,0.5-5.4,2c-1.5,1.7-2.2,3.6-2,5.4
				c0.1,0.5,0.2,1.1,0.5,1.7l0.3,0.6l-0.4,0.5c-0.5,0.6-0.9,1.3-1.4,1.9l-0.4,0.6l-0.7-0.1c-0.7-0.1-1.3,0-1.8,0.1
				c-0.9,0.2-1.7,0.7-2.5,1.3c-0.9,0.7-1.5,1.5-1.9,2.3c-0.5,1-0.8,2.1-0.8,3.1c-0.1,0.8,0.1,1.7,0.5,2.8c0.2,0.5,0.5,0.9,0.9,1.5
				l0.4,0.5l-0.2,0.6c-0.3,0.7-0.5,1.5-0.7,2.2l-0.2,0.6l-0.7,0.2c-0.7,0.2-1.2,0.4-1.6,0.7c-1.7,1.1-2.9,2.9-3.1,4.8
				c-0.2,1.2-0.1,2.3,0.1,3.1c0.3,0.9,0.8,1.8,1.4,2.5c0.3,0.4,0.8,0.8,1.4,1.1l0.6,0.4l0,1.1c0,0.2,0,0.5,0,0.7s0,0.5,0,0.7l0,1.1
				l-0.6,0.4c-0.6,0.4-1,0.7-1.4,1.1c-0.6,0.7-1.1,1.6-1.4,2.5c-0.2,0.8-0.3,1.8-0.1,3c0.2,2,1.4,3.7,3.1,4.8c0.5,0.3,1,0.5,1.6,0.7
				l0.7,0.2l0.2,0.6c0.2,0.7,0.5,1.5,0.7,2.2l0.2,0.6l-0.4,0.5c-0.4,0.5-0.7,1-0.9,1.5c-0.4,1-0.6,1.9-0.5,2.7c0.1,1,0.4,2.1,0.8,3
				c0.4,0.9,1,1.7,1.9,2.3c0.8,0.6,1.7,1,2.5,1.3c0.5,0.1,1.1,0.2,1.8,0.1l0.7-0.1l0.4,0.6c0.4,0.6,0.9,1.3,1.4,1.9l0.4,0.5
				l-0.3,0.6c-0.3,0.7-0.4,1.2-0.5,1.7c-0.2,1.8,0.5,3.7,2,5.4c1.7,1.5,3.6,2.2,5.4,2c0.5-0.1,1.1-0.2,1.7-0.5l0.6-0.3l0.5,0.4
				c0.6,0.5,1.3,0.9,1.9,1.4l0.6,0.4l-0.1,0.7c0,0.5,0,0.9,0,1.2c0,0.2,0,0.4,0.1,0.5c0.2,0.9,0.7,1.7,1.3,2.5
				c0.7,0.9,1.5,1.5,2.3,1.9c1,0.5,2.1,0.8,3.1,0.8c0.8,0.1,1.7-0.1,2.8-0.5c0.5-0.2,0.9-0.5,1.5-0.9l0.5-0.4l0.6,0.2
				c0.7,0.3,1.5,0.5,2.2,0.7l0.6,0.2l0.2,0.7c0.2,0.7,0.4,1.2,0.7,1.6c1.1,1.7,2.9,2.9,4.8,3.1c0.5,0.1,1,0.1,1.4,0.1
				c0.6,0,1.2-0.1,1.7-0.2c0.9-0.3,1.8-0.8,2.5-1.4c0.4-0.3,0.8-0.8,1.1-1.4l0.4-0.6l1.1,0c0.5,0,1,0,1.4,0l1.1,0l0.4,0.6
				c0.4,0.6,0.7,1,1.1,1.4c0.7,0.6,1.6,1.1,2.5,1.4c0.8,0.2,1.8,0.3,3,0.1c0.3,0,0.6-0.1,1-0.2c1.6-0.4,3-1.5,3.8-2.9
				c0.3-0.4,0.5-1,0.7-1.6l0.2-0.7l0.6-0.2c0.7-0.2,1.5-0.5,2.2-0.7l0.6-0.2l0.5,0.4c0.5,0.4,1,0.7,1.5,0.9c1,0.4,1.9,0.6,2.7,0.5
				c1-0.1,2.1-0.4,3-0.8c0.9-0.4,1.7-1,2.3-1.9c0.6-0.8,1-1.7,1.3-2.5c0.1-0.5,0.2-1.1,0.1-1.8l-0.1-0.7l0.6-0.4
				c0.3-0.2,0.5-0.4,0.7-0.5c0.4-0.3,0.8-0.6,1.2-0.8l0.5-0.4l0.6,0.3c0.7,0.3,1.2,0.4,1.7,0.5c1.8,0.2,3.7-0.5,5.4-2
				c1.5-1.7,2.2-3.6,2-5.4c-0.1-0.5-0.2-1.1-0.5-1.7l-0.3-0.6l0.4-0.5c0.5-0.6,0.9-1.3,1.4-1.9l0.4-0.6l0.7,0.1
				c0.7,0.1,1.3,0,1.8-0.1c0.9-0.2,1.7-0.7,2.5-1.3c0.9-0.7,1.5-1.5,1.9-2.3c0.5-1,0.8-2,0.8-3.1c0.1-0.8-0.1-1.7-0.5-2.8
				c-0.2-0.5-0.5-0.9-0.9-1.5l-0.4-0.5l0.2-0.6c0.3-0.7,0.5-1.5,0.7-2.2l0.2-0.6l0.7-0.2c0.7-0.2,1.2-0.4,1.6-0.7
				c1.7-1.1,2.9-2.9,3.1-4.8c0.2-1.2,0.1-2.3-0.1-3.1C205.2,115.2,204.7,114.3,204.1,113.6z M149.4,153.4
				c-23.8,0-43.1-19.3-43.1-43.1c0-23.8,19.3-43.1,43.1-43.1c23.8,0,43.1,19.3,43.1,43.1C192.6,134,173.2,153.4,149.4,153.4z"/>
		</g>
		<g>
			<g>
				<path class="st3" d="M184.5,119.8c0,0-0.6,0.1-1.1,0.3c-0.6,0.1-1.1,0.2-1.1,0.2c-0.1,0-0.3,0.1-0.4,0.3l-1.1,2.2
					c-0.2,0.4-0.7,0.3-0.8,0c0,0-0.2-0.5-0.5-1.1c-0.2-0.5-0.5-1-0.5-1c-0.1-0.1-0.2-0.2-0.3-0.3l-2.3-0.4c-0.4-0.1-0.5-0.5-0.3-0.7
					c0,0,0.1-0.1,0.3-0.2c0.2-0.1,0.4-0.3,0.5-0.5c0.4-0.4,0.7-0.8,0.7-0.8c0.1-0.1,0.1-0.2,0.1-0.4c0,0-0.1-0.5-0.3-1
					c-0.1-0.2-0.2-0.5-0.2-0.7c-0.1-0.2-0.1-0.3-0.1-0.3c-0.1-0.3,0.2-0.6,0.6-0.5l2.2,0.7c0.1,0.1,0.3,0,0.4-0.1
					c0,0,0.5-0.3,0.9-0.7c0.5-0.4,0.9-0.7,0.9-0.7c0.3-0.3,0.8,0,0.7,0.4l0,2.4c0,0.2,0.1,0.3,0.2,0.4c0,0,0.4,0.4,0.9,0.8
					c0.4,0.4,0.9,0.8,0.9,0.8C185,119.1,184.9,119.7,184.5,119.8z"/>
			</g>
			<g>
				<path class="st3" d="M178.2,132.5c0,0-0.6-0.1-1.2-0.2c-0.6-0.1-1.1-0.2-1.1-0.2c-0.2,0-0.3,0-0.4,0.1l-1.9,1.6
					c-0.3,0.3-0.8,0-0.7-0.4c0,0,0-0.6,0-1.2c0-0.6,0-1.2,0-1.2c0-0.2-0.1-0.3-0.2-0.4l-1.9-1.2c-0.3-0.2-0.3-0.7,0-0.8
					c0,0,0.5-0.1,1-0.3c0.5-0.2,1-0.4,1-0.4c0.1-0.1,0.2-0.2,0.2-0.3c0,0,0.1-0.5,0.1-1.1c0-0.3,0.1-0.5,0.1-0.7c0-0.2,0-0.3,0-0.3
					c0-0.4,0.4-0.5,0.7-0.3l1.7,1.5c0.1,0.1,0.3,0.1,0.4,0.1c0,0,0.6-0.1,1.1-0.3c0.6-0.2,1.1-0.3,1.1-0.3c0.4-0.1,0.7,0.2,0.6,0.6
					l-1,2.2c-0.1,0.2-0.1,0.3,0,0.5c0,0,0.3,0.5,0.5,1c0.2,0.5,0.5,1.1,0.5,1.1C178.9,132.1,178.6,132.5,178.2,132.5z"/>
			</g>
			<g>
				<path class="st3" d="M167.5,141.8c0,0-0.5-0.3-1-0.6c-0.5-0.3-1-0.6-1-0.6c-0.1-0.1-0.3-0.1-0.5-0.1l-2.3,0.8
					c-0.4,0.1-0.7-0.3-0.6-0.6c0,0,0.1-0.1,0.1-0.3c0.1-0.2,0.2-0.5,0.3-0.8c0.2-0.5,0.4-1.1,0.4-1.1c0.1-0.1,0-0.3-0.1-0.4
					l-1.3-1.9c-0.2-0.3,0-0.7,0.3-0.7c0,0,0.5,0,1.1,0.1c0.5,0,1.1,0,1.1,0c0.1,0,0.3-0.1,0.3-0.2c0,0,0.3-0.5,0.5-0.9
					c0.1-0.2,0.2-0.5,0.3-0.6c0.1-0.2,0.1-0.3,0.1-0.3c0.1-0.3,0.6-0.3,0.8,0l1,2.1c0.1,0.1,0.2,0.2,0.3,0.3c0,0,0.6,0.1,1.1,0.2
					c0.6,0.1,1.2,0.1,1.2,0.1c0.4,0,0.6,0.5,0.3,0.8c0,0-0.4,0.4-0.9,0.9c-0.2,0.2-0.4,0.4-0.6,0.6c-0.2,0.2-0.3,0.3-0.3,0.3
					c-0.1,0.1-0.2,0.3-0.2,0.4c0,0,0,0.6,0.1,1.2c0,0.6,0.1,1.2,0.1,1.2C168.3,141.7,167.8,142,167.5,141.8z"/>
			</g>
			<g>
				<path class="st3" d="M154,146.3c0,0-0.3-0.5-0.7-0.9c-0.3-0.5-0.7-1-0.7-1c-0.1-0.1-0.2-0.2-0.4-0.2l-2.4-0.2
					c-0.4,0-0.6-0.5-0.3-0.8c0,0,0.4-0.4,0.8-0.8c0.4-0.4,0.8-0.8,0.8-0.8c0.1-0.1,0.1-0.3,0.1-0.4l-0.5-2.2
					c-0.1-0.4,0.3-0.7,0.6-0.5c0,0,0.5,0.2,1,0.5c0.5,0.2,1,0.4,1,0.4c0.1,0.1,0.3,0,0.4-0.1c0,0,0.4-0.3,0.8-0.7
					c0.2-0.2,0.4-0.3,0.6-0.5c0.1-0.1,0.2-0.2,0.2-0.2c0.3-0.3,0.7-0.1,0.7,0.3l0.2,2.3c0,0.2,0.1,0.3,0.2,0.4c0,0,0.5,0.3,1,0.6
					c0.5,0.3,1,0.6,1,0.6c0.4,0.2,0.3,0.7,0,0.8c0,0-0.6,0.2-1.1,0.5c-0.3,0.1-0.6,0.2-0.8,0.3c-0.2,0.1-0.4,0.1-0.4,0.1
					c-0.2,0-0.3,0.2-0.3,0.3c0,0-0.2,0.6-0.4,1.1c-0.2,0.6-0.4,1.1-0.4,1.1C154.9,146.5,154.3,146.6,154,146.3z"/>
			</g>
			<g>
				<path class="st3" d="M139.9,145.3c0,0-0.1-0.6-0.3-1.1c-0.1-0.6-0.2-1.1-0.2-1.1c0-0.1-0.1-0.3-0.3-0.4l-2.2-1.1
					c-0.4-0.2-0.3-0.7,0-0.8c0,0,0.5-0.2,1.1-0.5c0.5-0.2,1-0.5,1-0.5c0.1-0.1,0.2-0.2,0.3-0.3l0.4-2.3c0.1-0.4,0.5-0.5,0.7-0.3
					c0,0,0.1,0.1,0.2,0.3c0.1,0.2,0.3,0.4,0.5,0.5c0.4,0.4,0.8,0.7,0.8,0.7c0.1,0.1,0.2,0.1,0.4,0.1c0,0,0.5-0.1,1-0.3
					c0.2-0.1,0.5-0.2,0.7-0.2c0.2-0.1,0.3-0.1,0.3-0.1c0.3-0.1,0.6,0.2,0.5,0.6l-0.7,2.2c-0.1,0.1,0,0.3,0.1,0.4
					c0,0,0.3,0.5,0.7,0.9c0.4,0.5,0.7,0.9,0.7,0.9c0.3,0.3,0,0.8-0.4,0.7l-2.4,0c-0.2,0-0.3,0.1-0.4,0.2c0,0-0.4,0.4-0.8,0.9
					c-0.4,0.4-0.8,0.9-0.8,0.9C140.6,145.9,140,145.7,139.9,145.3z"/>
			</g>
			<g>
				<path class="st3" d="M127.2,139c0,0,0.1-0.6,0.2-1.2c0.1-0.6,0.2-1.1,0.2-1.1c0-0.2,0-0.3-0.1-0.4l-1.6-1.9
					c-0.3-0.3,0-0.8,0.4-0.7c0,0,0.6,0,1.2,0c0.6,0,1.2,0,1.2,0c0.2,0,0.3-0.1,0.4-0.2l1.2-1.9c0.2-0.3,0.7-0.3,0.8,0
					c0,0,0.1,0.5,0.3,1c0.2,0.5,0.4,1,0.4,1c0.1,0.1,0.2,0.2,0.3,0.2c0,0,0.5,0.1,1.1,0.1c0.3,0,0.5,0.1,0.7,0.1c0.2,0,0.3,0,0.3,0
					c0.4,0,0.5,0.4,0.3,0.7l-1.5,1.7c-0.1,0.1-0.1,0.3-0.1,0.4c0,0,0.1,0.6,0.3,1.1c0.2,0.6,0.3,1.1,0.3,1.1
					c0.1,0.4-0.2,0.7-0.6,0.6l-2.2-1c-0.2-0.1-0.3-0.1-0.5,0c0,0-0.5,0.3-1,0.5c-0.5,0.2-1.1,0.5-1.1,0.5
					C127.6,139.7,127.2,139.4,127.2,139z"/>
			</g>
			<g>
				<path class="st3" d="M117.9,128.3c0,0,0.3-0.5,0.6-1c0.3-0.5,0.6-1,0.6-1c0.1-0.1,0.1-0.3,0.1-0.5l-0.8-2.3
					c-0.1-0.4,0.3-0.7,0.6-0.6c0,0,0.1,0.1,0.3,0.1c0.2,0.1,0.5,0.2,0.8,0.3c0.5,0.2,1.1,0.4,1.1,0.4c0.1,0.1,0.3,0,0.4-0.1l1.9-1.3
					c0.3-0.2,0.7,0,0.7,0.3c0,0,0,0.5-0.1,1.1c0,0.5,0,1.1,0,1.1c0,0.1,0.1,0.3,0.2,0.3c0,0,0.5,0.3,0.9,0.5
					c0.2,0.1,0.5,0.2,0.6,0.3c0.2,0.1,0.3,0.1,0.3,0.1c0.3,0.1,0.3,0.6,0,0.8l-2.1,1c-0.1,0.1-0.2,0.2-0.3,0.3c0,0-0.1,0.6-0.2,1.1
					c-0.1,0.6-0.1,1.2-0.1,1.2c0,0.4-0.5,0.6-0.8,0.3c0,0-0.4-0.4-0.9-0.9c-0.2-0.2-0.4-0.4-0.6-0.6c-0.2-0.2-0.3-0.3-0.3-0.3
					c-0.1-0.1-0.3-0.2-0.4-0.2c0,0-0.6,0-1.2,0.1c-0.6,0-1.2,0.1-1.2,0.1C118,129.1,117.7,128.7,117.9,128.3z"/>
			</g>
			<g>
				<path class="st3" d="M113.4,114.9c0,0,0.5-0.3,0.9-0.7c0.5-0.3,1-0.7,1-0.7c0.1-0.1,0.2-0.2,0.2-0.4l0.2-2.4
					c0-0.4,0.5-0.6,0.8-0.3c0,0,0.4,0.4,0.8,0.8c0.4,0.4,0.8,0.8,0.8,0.8c0.1,0.1,0.3,0.1,0.4,0.1l2.2-0.5c0.4-0.1,0.7,0.3,0.5,0.6
					c0,0-0.2,0.5-0.5,1c-0.2,0.5-0.4,1-0.4,1c-0.1,0.1,0,0.3,0.1,0.4c0,0,0.3,0.4,0.7,0.8c0.2,0.2,0.3,0.4,0.5,0.6
					c0.1,0.1,0.2,0.2,0.2,0.2c0.3,0.3,0.1,0.7-0.3,0.7l-2.3,0.2c-0.2,0-0.3,0.1-0.4,0.2c0,0-0.3,0.5-0.6,1c-0.3,0.5-0.6,1-0.6,1
					c-0.2,0.4-0.7,0.3-0.8,0c0,0-0.2-0.6-0.5-1.1c-0.1-0.3-0.2-0.6-0.3-0.8c-0.1-0.2-0.1-0.4-0.1-0.4c0-0.2-0.2-0.3-0.3-0.3
					c0,0-0.6-0.2-1.1-0.4c-0.6-0.2-1.1-0.4-1.1-0.4C113.2,115.7,113.1,115.1,113.4,114.9z"/>
			</g>
			<g>
				<path class="st3" d="M114.4,100.7c0,0,0.6-0.1,1.1-0.3c0.6-0.1,1.1-0.2,1.1-0.2c0.1,0,0.3-0.1,0.4-0.3l1.1-2.2
					c0.2-0.4,0.7-0.3,0.8,0c0,0,0.2,0.5,0.5,1.1c0.2,0.5,0.5,1,0.5,1c0.1,0.1,0.2,0.2,0.3,0.3l2.3,0.4c0.4,0.1,0.5,0.5,0.3,0.7
					c0,0-0.1,0.1-0.3,0.2c-0.2,0.1-0.4,0.3-0.5,0.5c-0.4,0.4-0.7,0.8-0.7,0.8c-0.1,0.1-0.1,0.2-0.1,0.4c0,0,0.1,0.5,0.3,1
					c0.1,0.2,0.2,0.5,0.2,0.7c0.1,0.2,0.1,0.3,0.1,0.3c0.1,0.3-0.2,0.6-0.6,0.5L119,105c-0.1-0.1-0.3,0-0.4,0.1c0,0-0.5,0.3-0.9,0.7
					c-0.5,0.4-0.9,0.7-0.9,0.7c-0.3,0.3-0.8,0-0.7-0.4l0-2.4c0-0.2-0.1-0.3-0.2-0.4c0,0-0.4-0.4-0.9-0.8c-0.4-0.4-0.9-0.8-0.9-0.8
					C113.9,101.4,114,100.8,114.4,100.7z"/>
			</g>
			<g>
				<path class="st3" d="M120.7,88c0,0,0.6,0.1,1.2,0.2c0.6,0.1,1.1,0.2,1.1,0.2c0.2,0,0.3,0,0.4-0.1l1.9-1.6c0.3-0.3,0.8,0,0.7,0.4
					c0,0,0,0.6,0,1.2c0,0.6,0,1.2,0,1.2c0,0.2,0.1,0.3,0.2,0.4l1.9,1.2c0.3,0.2,0.3,0.7,0,0.8c0,0-0.5,0.1-1,0.3
					c-0.5,0.2-1,0.4-1,0.4c-0.1,0.1-0.2,0.2-0.2,0.3c0,0-0.1,0.5-0.1,1.1c0,0.3-0.1,0.5-0.1,0.7c0,0.2,0,0.3,0,0.3
					c0,0.4-0.4,0.5-0.7,0.3l-1.7-1.5c-0.1-0.1-0.3-0.1-0.4-0.1c0,0-0.6,0.1-1.1,0.3c-0.6,0.2-1.1,0.3-1.1,0.3
					c-0.4,0.1-0.7-0.2-0.6-0.6l1-2.2c0.1-0.2,0.1-0.3,0-0.5c0,0-0.3-0.5-0.5-1c-0.2-0.5-0.5-1.1-0.5-1.1C120,88.4,120.3,88,120.7,88
					z"/>
			</g>
			<g>
				<path class="st3" d="M131.4,78.7c0,0,0.5,0.3,1,0.6c0.5,0.3,1,0.6,1,0.6c0.1,0.1,0.3,0.1,0.5,0.1l2.3-0.8
					c0.4-0.1,0.7,0.3,0.6,0.6c0,0-0.1,0.1-0.1,0.3c-0.1,0.2-0.2,0.5-0.3,0.8c-0.2,0.5-0.4,1.1-0.4,1.1c-0.1,0.1,0,0.3,0.1,0.4
					l1.3,1.9c0.2,0.3,0,0.7-0.3,0.7c0,0-0.5,0-1.1-0.1c-0.5,0-1.1,0-1.1,0c-0.1,0-0.3,0.1-0.3,0.2c0,0-0.3,0.5-0.5,0.9
					c-0.1,0.2-0.2,0.5-0.3,0.6c-0.1,0.2-0.1,0.3-0.1,0.3c-0.1,0.3-0.6,0.3-0.8,0l-1-2.1c-0.1-0.1-0.2-0.2-0.3-0.3
					c0,0-0.6-0.1-1.1-0.2c-0.6-0.1-1.2-0.1-1.2-0.1c-0.4,0-0.6-0.5-0.3-0.8c0,0,0.4-0.4,0.9-0.9c0.2-0.2,0.4-0.4,0.6-0.6
					c0.2-0.2,0.3-0.3,0.3-0.3c0.1-0.1,0.2-0.3,0.2-0.4c0,0,0-0.6-0.1-1.2c0-0.6-0.1-1.2-0.1-1.2C130.6,78.8,131.1,78.5,131.4,78.7z"
					/>
			</g>
			<g>
				<path class="st3" d="M144.8,74.2c0,0,0.3,0.5,0.7,0.9c0.3,0.5,0.7,1,0.7,1c0.1,0.1,0.2,0.2,0.4,0.2l2.4,0.2
					c0.4,0,0.6,0.5,0.3,0.8c0,0-0.4,0.4-0.8,0.8c-0.4,0.4-0.8,0.8-0.8,0.8c-0.1,0.1-0.1,0.3-0.1,0.4l0.5,2.2
					c0.1,0.4-0.3,0.7-0.6,0.5c0,0-0.5-0.2-1-0.5c-0.5-0.2-1-0.4-1-0.4c-0.1-0.1-0.3,0-0.4,0.1c0,0-0.4,0.3-0.8,0.7
					c-0.2,0.2-0.4,0.3-0.6,0.5c-0.1,0.1-0.2,0.2-0.2,0.2c-0.3,0.3-0.7,0.1-0.7-0.3l-0.2-2.3c0-0.2-0.1-0.3-0.2-0.4
					c0,0-0.5-0.3-1-0.6c-0.5-0.3-1-0.6-1-0.6c-0.4-0.2-0.3-0.7,0-0.8c0,0,0.6-0.2,1.1-0.5c0.3-0.1,0.6-0.2,0.8-0.3
					c0.2-0.1,0.4-0.1,0.4-0.1c0.2,0,0.3-0.2,0.3-0.3c0,0,0.2-0.6,0.4-1.1c0.2-0.6,0.4-1.1,0.4-1.1C144,74,144.6,73.9,144.8,74.2z"/>
			</g>
			<g>
				<path class="st3" d="M159,75.2c0,0,0.1,0.6,0.3,1.1c0.1,0.6,0.2,1.1,0.2,1.1c0,0.1,0.1,0.3,0.3,0.4L162,79
					c0.4,0.2,0.3,0.7,0,0.8c0,0-0.5,0.2-1.1,0.5c-0.5,0.2-1,0.5-1,0.5c-0.1,0.1-0.2,0.2-0.3,0.3l-0.4,2.3c-0.1,0.4-0.5,0.5-0.7,0.3
					c0,0-0.1-0.1-0.2-0.3c-0.1-0.2-0.3-0.4-0.5-0.5c-0.4-0.4-0.8-0.7-0.8-0.7c-0.1-0.1-0.2-0.1-0.4-0.1c0,0-0.5,0.1-1,0.3
					c-0.2,0.1-0.5,0.2-0.7,0.2c-0.2,0.1-0.3,0.1-0.3,0.1c-0.3,0.1-0.6-0.2-0.5-0.6l0.7-2.2c0.1-0.1,0-0.3-0.1-0.4
					c0,0-0.3-0.5-0.7-0.9c-0.4-0.5-0.7-0.9-0.7-0.9c-0.3-0.3,0-0.8,0.4-0.7l2.4,0c0.2,0,0.3-0.1,0.4-0.2c0,0,0.4-0.4,0.8-0.9
					c0.4-0.4,0.8-0.9,0.8-0.9C158.3,74.7,158.9,74.8,159,75.2z"/>
			</g>
			<g>
				<path class="st3" d="M171.7,81.5c0,0-0.1,0.6-0.2,1.2c-0.1,0.6-0.2,1.1-0.2,1.1c0,0.2,0,0.3,0.1,0.4l1.6,1.9
					c0.3,0.3,0,0.8-0.4,0.7c0,0-0.6,0-1.2,0c-0.6,0-1.2,0-1.2,0c-0.2,0-0.3,0.1-0.4,0.2l-1.2,1.9c-0.2,0.3-0.7,0.3-0.8,0
					c0,0-0.1-0.5-0.3-1c-0.2-0.5-0.4-1-0.4-1c-0.1-0.1-0.2-0.2-0.3-0.2c0,0-0.5-0.1-1.1-0.1c-0.3,0-0.5-0.1-0.7-0.1
					c-0.2,0-0.3,0-0.3,0c-0.4,0-0.5-0.4-0.3-0.7l1.5-1.7c0.1-0.1,0.1-0.3,0.1-0.4c0,0-0.1-0.6-0.3-1.1c-0.2-0.6-0.3-1.1-0.3-1.1
					c-0.1-0.4,0.2-0.7,0.6-0.6l2.2,1c0.2,0.1,0.3,0.1,0.5,0c0,0,0.5-0.3,1-0.5c0.5-0.2,1.1-0.5,1.1-0.5
					C171.3,80.8,171.7,81.1,171.7,81.5z"/>
			</g>
			<g>
				<path class="st3" d="M181,92.2c0,0-0.3,0.5-0.6,1c-0.3,0.5-0.6,1-0.6,1c-0.1,0.1-0.1,0.3-0.1,0.5l0.8,2.3
					c0.1,0.4-0.3,0.7-0.6,0.6c0,0-0.1-0.1-0.3-0.1c-0.2-0.1-0.5-0.2-0.8-0.3c-0.5-0.2-1.1-0.4-1.1-0.4c-0.1-0.1-0.3,0-0.4,0.1
					l-1.9,1.3c-0.3,0.2-0.7,0-0.7-0.3c0,0,0-0.5,0.1-1.1c0-0.5,0-1.1,0-1.1c0-0.1-0.1-0.3-0.2-0.3c0,0-0.5-0.3-0.9-0.5
					c-0.2-0.1-0.5-0.2-0.6-0.3c-0.2-0.1-0.3-0.1-0.3-0.1c-0.3-0.1-0.3-0.6,0-0.8l2.1-1c0.1-0.1,0.2-0.2,0.3-0.3c0,0,0.1-0.6,0.2-1.1
					c0.1-0.6,0.1-1.2,0.1-1.2c0-0.4,0.5-0.6,0.8-0.3c0,0,0.4,0.4,0.9,0.9c0.2,0.2,0.4,0.4,0.6,0.6c0.2,0.2,0.3,0.3,0.3,0.3
					c0.1,0.1,0.3,0.2,0.4,0.2c0,0,0.6,0,1.2-0.1c0.6,0,1.2-0.1,1.2-0.1C180.9,91.4,181.2,91.9,181,92.2z"/>
			</g>
			<g>
				<path class="st3" d="M185.5,105.7c0,0-0.5,0.3-0.9,0.7c-0.5,0.3-1,0.7-1,0.7c-0.1,0.1-0.2,0.2-0.2,0.4l-0.2,2.4
					c0,0.4-0.5,0.6-0.8,0.3c0,0-0.4-0.4-0.8-0.8c-0.4-0.4-0.8-0.8-0.8-0.8c-0.1-0.1-0.3-0.1-0.4-0.1l-2.2,0.5
					c-0.4,0.1-0.7-0.3-0.5-0.6c0,0,0.2-0.5,0.5-1c0.2-0.5,0.4-1,0.4-1c0.1-0.1,0-0.3-0.1-0.4c0,0-0.3-0.4-0.7-0.8
					c-0.2-0.2-0.3-0.4-0.5-0.6c-0.1-0.1-0.2-0.2-0.2-0.2c-0.3-0.3-0.1-0.7,0.3-0.7l2.3-0.2c0.2,0,0.3-0.1,0.4-0.2c0,0,0.3-0.5,0.6-1
					c0.3-0.5,0.6-1,0.6-1c0.2-0.4,0.7-0.3,0.8,0c0,0,0.2,0.6,0.5,1.1c0.1,0.3,0.2,0.6,0.3,0.8c0.1,0.2,0.1,0.4,0.1,0.4
					c0,0.2,0.2,0.3,0.3,0.3c0,0,0.6,0.2,1.1,0.4c0.6,0.2,1.1,0.4,1.1,0.4C185.7,104.9,185.8,105.4,185.5,105.7z"/>
			</g>
		</g>
	</g>
	<circle class="st4" cx="149.6" cy="149.7" r="139.5"/>
</g>
</svg>
